<svg xmlns="http://www.w3.org/2000/svg" viewBox="0 0 64 64">
  <defs>
    <linearGradient id="g" x1="0" x2="1" y1="0" y2="1">
      <stop offset="0" stop-color="#7c5cff"/>
      <stop offset="1" stop-color="#4f46e5"/>
    </linearGradient>
  </defs>
  <rect x="4" y="4" width="56" height="56" rx="14" fill="url(#g)"/>
  <g fill="white" opacity="0.95">
    <path d="M18 40c6-3 10-10 14-16 4-5 8-9 14-9 2 0 4 1 6 2-3-1-6 1-8 3-6 6-10 14-16 19-3 2-7 4-10 4-3 0-4-1-6-2 2 1 4 0 6-1z"/>
    <circle cx="44" cy="22" r="3"/>
  </g>
</svg>


